<svg width="60" height="60" viewBox="0 0 60 60" fill="none" xmlns="http://www.w3.org/2000/svg">
<rect width="60" height="60" rx="30" fill="white"/>
<rect x="0.5" y="0.5" width="59" height="59" rx="29.5" fill="white" stroke="#F5F5F6"/>
<circle cx="30" cy="30" r="20" fill="#0077B5"/>
<path fill-rule="evenodd" clip-rule="evenodd" d="M24.7747 20.2839C24.7747 21.529 23.8267 22.5366 22.3442 22.5366C20.9194 22.5366 19.9713 21.529 20.0007 20.2839C19.9713 18.9783 20.9193 18 22.3726 18C23.8267 18 24.7463 18.9783 24.7747 20.2839ZM20.1199 38.8191V24.3162H24.6271V38.8181H20.1199V38.8191Z" fill="white"/>
<path fill-rule="evenodd" clip-rule="evenodd" d="M28.2398 28.9446C28.2398 27.1357 28.1802 25.5935 28.1206 24.3182H32.0356L32.2437 26.305H32.3326C32.9259 25.3854 34.4084 23.9927 36.8106 23.9927C39.7757 23.9927 42 25.9502 42 30.219V38.821H37.4927V30.7838C37.4927 28.9144 36.8408 27.6399 35.2098 27.6399C33.9637 27.6399 33.2229 28.4999 32.9268 29.3297C32.8076 29.6268 32.7489 30.0412 32.7489 30.4574V38.821H28.2416V28.9446H28.2398Z" fill="white"/>
</svg>
