<svg width="60" height="60" viewBox="0 0 60 60" fill="none" xmlns="http://www.w3.org/2000/svg">
<rect width="60" height="60" rx="30" fill="white"/>
<rect x="0.5" y="0.5" width="59" height="59" rx="29.5" fill="white" stroke="#F5F5F6"/>
<g clip-path="url(#clip0_136_2584)">
<path d="M42.363 19.488L42.256 18.899C42.2262 18.7361 42.1475 18.5863 42.0302 18.4694C41.913 18.3525 41.7629 18.2742 41.6 18.245L41.012 18.138C38.5039 17.6845 35.921 17.8913 33.517 18.738C30.7383 19.7302 28.3133 21.519 26.545 23.881L25.592 23.554C24.8334 23.2935 24.0188 23.2417 23.2333 23.4039C22.4478 23.5661 21.7204 23.9363 21.127 24.476L18.119 27.211C17.7988 27.5043 17.5731 27.8863 17.4707 28.3083C17.3682 28.7303 17.3937 29.1733 17.5438 29.5808C17.694 29.9883 17.962 30.3419 18.3137 30.5965C18.6654 30.8512 19.085 30.9955 19.519 31.011L22.18 31.094C22.1116 31.5085 22.1429 31.9333 22.2714 32.3333C22.4 32.7333 22.6219 33.0969 22.919 33.394L27.1 37.578C27.3969 37.8753 27.7605 38.0975 28.1605 38.2262C28.5605 38.3549 28.9854 38.3863 29.4 38.318L29.483 40.979C29.4985 41.413 29.6427 41.8325 29.8974 42.1843C30.1521 42.536 30.5057 42.804 30.9132 42.9541C31.3207 43.1042 31.7636 43.1297 32.1856 43.0273C32.6077 42.9249 32.9897 42.6992 33.283 42.379L36.018 39.371C36.5576 38.7776 36.9279 38.0501 37.0901 37.2647C37.2523 36.4792 37.2004 35.6646 36.94 34.906L36.613 33.953C38.9812 32.1892 40.7745 29.764 41.767 26.983C42.6137 24.579 42.8204 21.9961 42.367 19.488H42.363ZM19.212 28.414L22.221 25.679C22.5991 25.3355 23.0625 25.0999 23.5628 24.9968C24.0631 24.8937 24.5819 24.9269 25.065 25.093L25.5 25.243C24.52 26.5946 23.6384 28.0149 22.862 29.493L19.572 29.393C19.4603 29.3895 19.3521 29.3528 19.2614 29.2875C19.1707 29.2222 19.1015 29.1313 19.0629 29.0264C19.0242 28.9215 19.0177 28.8075 19.0443 28.6989C19.0708 28.5903 19.1292 28.4921 19.212 28.417V28.414ZM35.412 35.436C35.5779 35.9191 35.611 36.438 35.5077 36.9383C35.4045 37.4386 35.1687 37.902 34.825 38.28L32.09 41.288C32.015 41.3712 31.9169 41.4301 31.8081 41.4569C31.6994 41.4838 31.5851 41.4775 31.48 41.4387C31.3749 41.3999 31.2839 41.3305 31.2186 41.2395C31.1534 41.1485 31.1169 41.0399 31.114 40.928L31.014 37.638C32.4923 36.8605 33.9126 35.9776 35.264 34.996L35.412 35.436ZM36.396 32.031C34.2738 33.8506 31.9299 35.3942 29.42 36.625C29.2289 36.7176 29.0137 36.7482 28.8044 36.7123C28.5951 36.6764 28.4023 36.576 28.253 36.425C28.258 36.425 28.291 36.463 24.076 32.248C23.925 32.0987 23.8245 31.9059 23.7887 31.6966C23.7528 31.4873 23.7833 31.272 23.876 31.081C24.084 30.6563 24.3013 30.2366 24.528 29.822L28.937 34.231C29.0895 34.3835 29.2963 34.4691 29.512 34.4691C29.7277 34.4691 29.9345 34.3835 30.087 34.231C30.2395 34.0785 30.3252 33.8716 30.3252 33.656C30.3252 33.4403 30.2395 33.2335 30.087 33.081L25.37 28.367C26.306 26.8379 27.3648 25.3874 28.536 24.03C30.0248 22.3149 31.9349 21.0175 34.078 20.2658C36.221 19.514 38.5231 19.3338 40.757 19.743C41.1693 21.9939 40.9831 24.3136 40.217 26.47C39.451 28.6263 38.132 30.5436 36.392 32.03L36.396 32.031ZM31.772 23.773C31.2833 24.2628 30.9506 24.8864 30.8162 25.5651C30.6818 26.2439 30.7515 26.9472 31.0166 27.5863C31.2817 28.2254 31.7304 28.7716 32.3058 29.1559C32.8812 29.5401 33.5576 29.7452 34.2495 29.7452C34.9414 29.7452 35.6178 29.5401 36.1932 29.1559C36.7686 28.7716 37.2172 28.2254 37.4824 27.5863C37.7475 26.9472 37.8172 26.2439 37.6828 25.5651C37.5483 24.8864 37.2157 24.2628 36.727 23.773C36.0695 23.1167 35.1785 22.7481 34.2495 22.7481C33.3205 22.7481 32.4295 23.1167 31.772 23.773ZM35.578 27.579C35.3153 27.8416 34.9807 28.0204 34.6164 28.0929C34.2521 28.1653 33.8745 28.1281 33.5314 27.986C33.1882 27.8439 32.8949 27.6032 32.6886 27.2943C32.4822 26.9855 32.3721 26.6224 32.3721 26.251C32.3721 25.8795 32.4822 25.5165 32.6886 25.2076C32.8949 24.8988 33.1882 24.6581 33.5314 24.5159C33.8745 24.3738 34.2521 24.3366 34.6164 24.409C34.9807 24.4815 35.3153 24.6603 35.578 24.923C35.9296 25.2756 36.127 25.7532 36.1268 26.2512C36.1266 26.7491 35.9289 27.2266 35.577 27.579H35.578ZM18.649 36.912C18.5735 36.8365 18.5135 36.7468 18.4727 36.6482C18.4318 36.5495 18.4107 36.4438 18.4107 36.337C18.4107 36.2302 18.4318 36.1244 18.4727 36.0258C18.5135 35.9271 18.5735 35.8375 18.649 35.762L19.7 34.71C19.8525 34.5575 20.0593 34.4718 20.275 34.4718C20.4907 34.4718 20.6975 34.5575 20.85 34.71C21.0025 34.8625 21.0882 35.0693 21.0882 35.285C21.0882 35.5006 21.0025 35.7075 20.85 35.86L19.8 36.912C19.7245 36.9875 19.6349 37.0474 19.5362 37.0883C19.4375 37.1292 19.3318 37.1502 19.225 37.1502C19.1182 37.1502 19.0124 37.1292 18.9138 37.0883C18.8151 37.0474 18.7255 36.9875 18.65 36.912H18.649ZM25.831 39.693C25.9065 39.7685 25.9664 39.8581 26.0073 39.9568C26.0482 40.0554 26.0692 40.1612 26.0692 40.268C26.0692 40.3748 26.0482 40.4805 26.0073 40.5792C25.9664 40.6778 25.9065 40.7675 25.831 40.843L24.778 41.893C24.7031 41.9711 24.6134 42.0335 24.5142 42.0766C24.4149 42.1196 24.308 42.1424 24.1998 42.1435C24.0916 42.1447 23.9843 42.1243 23.884 42.0835C23.7838 42.0426 23.6928 41.9822 23.6162 41.9057C23.5397 41.8292 23.4792 41.7383 23.4383 41.6381C23.3973 41.5379 23.3768 41.4306 23.3779 41.3224C23.379 41.2142 23.4017 41.1073 23.4446 41.008C23.4876 40.9086 23.5499 40.8189 23.628 40.744L24.681 39.693C24.7565 39.6174 24.8461 39.5575 24.9448 39.5166C25.0434 39.4758 25.1492 39.4547 25.256 39.4547C25.3628 39.4547 25.4685 39.4758 25.5672 39.5166C25.6659 39.5575 25.7555 39.6174 25.831 39.693ZM24.055 37.593L20.481 41.168C20.3285 41.3205 20.1217 41.4061 19.906 41.4061C19.6903 41.4061 19.4835 41.3205 19.331 41.168C19.1785 41.0155 19.0928 40.8086 19.0928 40.593C19.0928 40.3773 19.1785 40.1705 19.331 40.018L22.905 36.444C23.0575 36.2915 23.2643 36.2058 23.48 36.2058C23.6957 36.2058 23.9025 36.2915 24.055 36.444C24.2075 36.5965 24.2932 36.8033 24.2932 37.019C24.2932 37.2346 24.2075 37.4415 24.055 37.594V37.593Z" fill="#395ED9"/>
<circle cx="30" cy="30" r="20" fill="#3B5998"/>
<path fill-rule="evenodd" clip-rule="evenodd" d="M35.315 22.9578C34.6917 22.8331 33.8498 22.74 33.3204 22.74C31.8867 22.74 31.7936 23.3633 31.7936 24.3607V26.1361H35.3774L35.065 29.8137H31.7936V41H27.3063V29.8137H25V26.1361H27.3063V23.8613C27.3063 20.7453 28.7708 19 32.4477 19C33.7252 19 34.6602 19.187 35.8753 19.4363L35.315 22.9578Z" fill="white"/>
</g>
<defs>
<clipPath id="clip0_136_2584">
<rect width="54" height="53" fill="white" transform="translate(3 4)"/>
</clipPath>
</defs>
</svg>
