<svg width="60" height="60" viewBox="0 0 60 60" fill="none" xmlns="http://www.w3.org/2000/svg">
<rect width="60" height="60" rx="30" fill="white"/>
<rect x="0.5" y="0.5" width="59" height="59" rx="29.5" fill="white" stroke="#F5F5F6"/>
<g clip-path="url(#clip0_136_2506)">
<path d="M44.2213 20.093C43.8809 19.6388 43.5232 19.1961 43.1483 18.7647C41.5505 16.9753 39.5926 15.5435 37.403 14.5632C35.2134 13.5829 32.8415 13.0762 30.4424 13.0762C28.0434 13.0762 25.6715 13.5829 23.4819 14.5632C21.2923 15.5435 19.3344 16.9753 17.7366 18.7647C17.3617 19.1961 17.004 19.6388 16.6636 20.093C14.5483 22.9913 13.4084 26.4866 13.4084 30.0747C13.4084 33.6628 14.5483 37.1582 16.6636 40.0565C17.004 40.5224 17.3617 40.9651 17.7366 41.3847C19.3344 43.1742 21.2923 44.6059 23.4819 45.5862C25.6715 46.5665 28.0434 47.0733 30.4424 47.0733C32.8415 47.0733 35.2134 46.5665 37.403 45.5862C39.5926 44.6059 41.5505 43.1742 43.1483 41.3847C43.5232 40.9643 43.8809 40.5216 44.2213 40.0565C46.3366 37.1582 47.4765 33.6628 47.4765 30.0747C47.4765 26.4866 46.3366 22.9913 44.2213 20.093ZM24.853 15.8165C23.6457 17.1947 22.69 18.7745 22.0295 20.4836C21.113 20.2365 20.2138 19.9292 19.3377 19.5636C20.8764 17.922 22.7601 16.6423 24.853 15.8165ZM18.193 20.933C19.2437 21.4164 20.332 21.8134 21.4472 22.12C20.7004 24.4169 20.2875 26.8092 20.2213 29.2236H15.1095C15.2961 26.2093 16.3688 23.3174 18.193 20.9106V20.933ZM18.193 39.2612C16.3604 36.8528 15.2868 33.953 15.1095 30.9318H20.2201C20.2741 33.3501 20.6759 35.748 21.413 38.0518C20.3095 38.3601 19.2327 38.7571 18.193 39.2388V39.2612ZM19.3342 40.6071C20.2102 40.2415 21.1094 39.9341 22.026 39.6871C22.6865 41.3962 23.6422 42.9759 24.8495 44.3541C22.7537 43.5237 20.8686 42.2378 19.3307 40.5894L19.3342 40.6071ZM29.5542 45.3424C27.1695 44.9 25.0577 42.6 23.6601 39.2777C25.6124 38.8777 27.5961 38.6497 29.5883 38.5965L29.5542 45.3424ZM29.5542 36.9271C27.366 36.9643 25.1866 37.2153 23.0472 37.6765C22.3667 35.4896 21.9883 33.22 21.9224 30.9306H29.5883L29.5542 36.9271ZM29.5542 29.2447H21.9236C21.9965 26.9605 22.3804 24.697 23.0648 22.5165C25.2096 22.9787 27.3946 23.2297 29.5883 23.2659L29.5542 29.2447ZM29.5883 21.5624C27.5852 21.5166 25.59 21.2941 23.626 20.8977C25.0224 17.5765 27.1354 15.2765 29.5201 14.833L29.5883 21.5624ZM42.6883 20.933C44.5147 23.3318 45.5879 26.2189 45.7719 29.2283H40.6613C40.6073 26.81 40.2055 24.4121 39.4683 22.1083C40.5722 21.7965 41.649 21.396 42.6883 20.9106V20.933ZM41.5472 19.5871C40.6711 19.9527 39.7719 20.26 38.8554 20.5071C38.1949 18.798 37.2392 17.2183 36.0319 15.84C38.1227 16.6593 40.0062 17.9313 41.5472 19.5647V19.5871ZM31.326 14.8459C33.7107 15.2883 35.8225 17.5883 37.2201 20.9106C35.2667 21.2992 33.2831 21.5157 31.2919 21.5577L31.326 14.8459ZM31.2883 23.2612C33.4766 23.224 35.656 22.973 37.7954 22.5118C38.4875 24.7198 38.8716 27.0128 38.9366 29.3259H31.2883V23.2612ZM31.2883 30.9436H38.9542C38.8814 33.2277 38.4974 35.4913 37.813 37.6718C35.6694 37.1981 33.4844 36.9356 31.2895 36.8883L31.2883 30.9436ZM31.2883 45.3377V38.5918C33.2681 38.6358 35.2403 38.8523 37.1824 39.2388C35.7895 42.58 33.6766 44.8777 31.2883 45.4036V45.3377ZM36.0236 44.3494C37.231 42.9712 38.1867 41.3915 38.8472 39.6824C39.7637 39.9294 40.6629 40.2368 41.5389 40.6024C39.9975 42.2384 38.1127 43.5125 36.0201 44.333L36.0236 44.3494ZM42.6883 39.2388C41.6383 38.7534 40.5503 38.3545 39.4354 38.0459C40.1837 35.7437 40.5966 33.3458 40.6613 30.9259H45.7719C45.5852 33.9401 44.5125 36.8321 42.6883 39.2388Z" fill="#EB2F96"/>
</g>
<defs>
<clipPath id="clip0_136_2506">
<rect width="40" height="40" fill="white" transform="translate(10 10)"/>
</clipPath>
</defs>
</svg>
