<svg width="61" height="61" viewBox="0 0 61 61" fill="none" xmlns="http://www.w3.org/2000/svg">
<path d="M30.4445 1.5H31.5555C47.5324 1.5 60.5 14.6988 60.5 31C60.5 47.3013 47.5324 60.5 31.5555 60.5H30.4445C14.4676 60.5 1.5 47.3013 1.5 31C1.5 14.6988 14.4676 1.5 30.4445 1.5Z" fill="white" stroke="#F5F5F6"/>
<g clip-path="url(#clip0_136_2467)">
<path d="M48.9971 31.774C49.0189 30.5113 48.8886 29.2506 48.6091 28.019H31.3661V34.835H41.4881C41.2964 36.0302 40.8649 37.1742 40.2196 38.1983C39.5743 39.2224 38.7285 40.1053 37.7331 40.794L37.6991 41.022L43.1511 45.246L43.5291 45.284C45.3343 43.5397 46.7537 41.4362 47.6957 39.1093C48.6377 36.7825 49.0814 34.284 48.9981 31.775" fill="#4285F4"/>
<path d="M31.3661 49.7281C35.8398 49.8543 40.1919 48.2623 43.5281 45.2791L37.7281 40.7891C35.8503 42.0489 33.6264 42.6917 31.3661 42.6281C29.0437 42.6145 26.7845 41.87 24.9091 40.5001C23.0337 39.1301 21.6373 37.2044 20.9181 34.9961L20.7031 35.0141L15.0341 39.4041L14.9601 39.6101C16.4874 42.6521 18.8307 45.2094 21.7279 46.9962C24.6251 48.783 27.9622 49.7289 31.3661 49.7281Z" fill="#34A853"/>
<path d="M20.9181 34.998C20.5169 33.8289 20.3102 32.602 20.3061 31.366C20.3141 30.1315 20.5145 28.9058 20.9001 27.733L20.8901 27.49L15.1501 23.032L14.9621 23.121C13.6741 25.6782 13.0032 28.5017 13.0032 31.365C13.0032 34.2283 13.6741 37.0517 14.9621 39.609L20.9211 34.997" fill="#FBBC05"/>
<path d="M31.3661 20.1C33.9973 20.0597 36.5419 21.0399 38.4661 22.835L43.6491 17.774C40.3249 14.6562 35.9233 12.9455 31.3661 13C27.9616 12.9993 24.624 13.9457 21.7265 15.7332C18.829 17.5208 16.4859 20.0791 14.9591 23.122L20.8971 27.734C21.6229 25.5256 23.0238 23.6007 24.9022 22.231C26.7805 20.8614 29.0415 20.116 31.3661 20.1Z" fill="#EB4335"/>
</g>
<defs>
<clipPath id="clip0_136_2467">
<rect width="54" height="53" fill="white" transform="translate(4 5)"/>
</clipPath>
</defs>
</svg>
