<svg width="60" height="60" viewBox="0 0 60 60" fill="none" xmlns="http://www.w3.org/2000/svg">
<rect width="60" height="60" rx="30" fill="white"/>
<rect x="0.5" y="0.5" width="59" height="59" rx="29.5" fill="white" stroke="#F5F5F6"/>
<path d="M39 14H22C17.5817 14 14 17.5817 14 22V39C14 43.4183 17.5817 47 22 47H39C43.4183 47 47 43.4183 47 39V22C47 17.5817 43.4183 14 39 14Z" stroke="#CB566D" stroke-width="2"/>
<path d="M37 38.2H23.069C22.5283 38.1731 22.017 37.9459 21.6345 37.5627C21.2521 37.1795 21.0259 36.6678 21 36.127V26.069C21.0269 25.529 21.2535 25.0182 21.6358 24.6358C22.0182 24.2535 22.529 24.0269 23.069 24H37C37.5402 24.0266 38.0513 24.2531 38.4338 24.6355C38.8164 25.0179 39.0431 25.5288 39.07 26.069V36.127C39.0441 36.6679 38.8178 37.1798 38.4351 37.563C38.0525 37.9462 37.5409 38.1733 37 38.2ZM26.717 31.359C26.6936 31.3588 26.6704 31.3639 26.6491 31.3737C26.6279 31.3836 26.609 31.398 26.594 31.416L23.16 35.489C23.1354 35.5185 23.1217 35.5556 23.121 35.594C23.121 35.6367 23.138 35.6777 23.1682 35.7078C23.1983 35.738 23.2393 35.755 23.282 35.755H36.782C36.8205 35.755 36.8578 35.7411 36.887 35.716C36.9192 35.6886 36.9396 35.6498 36.9441 35.6078C36.9486 35.5657 36.9367 35.5236 36.911 35.49L32.281 30.013C32.2772 30.0081 32.2729 30.0038 32.268 30L32.261 29.994C32.2329 29.9705 32.1976 29.9571 32.161 29.956C32.1376 29.9558 32.1144 29.9609 32.0931 29.9707C32.0719 29.9806 32.053 29.995 32.038 30.013L28.846 33.8L26.846 31.42L26.829 31.4H26.821C26.7922 31.3746 26.7554 31.3601 26.717 31.359ZM26.525 26.9C26.2698 26.9 26.0203 26.9756 25.8081 27.1174C25.5958 27.2591 25.4304 27.4605 25.3326 27.6963C25.2348 27.932 25.209 28.1914 25.2586 28.4418C25.3082 28.6921 25.4308 28.9221 25.6111 29.1028C25.7913 29.2835 26.0211 29.4067 26.2713 29.4568C26.5215 29.507 26.781 29.4818 27.017 29.3846C27.2529 29.2873 27.4548 29.1223 27.597 28.9104C27.7392 28.6985 27.8154 28.4492 27.816 28.194C27.8163 28.0242 27.7831 27.8561 27.7183 27.6992C27.6536 27.5423 27.5585 27.3997 27.4386 27.2795C27.3187 27.1593 27.1764 27.0639 27.0196 26.9988C26.8628 26.9337 26.6948 26.9001 26.525 26.9Z" fill="url(#paint0_linear_136_2521)"/>
<defs>
<linearGradient id="paint0_linear_136_2521" x1="36.3234" y1="24" x2="26.4774" y2="40.5077" gradientUnits="userSpaceOnUse">
<stop stop-color="#CC566C"/>
<stop offset="1" stop-color="#E5644F"/>
</linearGradient>
</defs>
</svg>
