<svg width="60" height="60" viewBox="0 0 60 60" fill="none" xmlns="http://www.w3.org/2000/svg">
<rect width="60" height="60" rx="30" fill="white"/>
<rect x="0.5" y="0.5" width="59" height="59" rx="29.5" fill="white" stroke="#F5F5F6"/>
<path d="M39 14H22C17.5817 14 14 17.5817 14 22V39C14 43.4183 17.5817 47 22 47H39C43.4183 47 47 43.4183 47 39V22C47 17.5817 43.4183 14 39 14Z" stroke="#CB566D" stroke-width="2"/>
<path d="M37.207 38.0177H23.276C22.7353 37.9908 22.224 37.7636 21.8416 37.3805C21.4591 36.9973 21.2329 36.4855 21.207 35.9447V25.8867C21.2339 25.3467 21.4605 24.8359 21.8428 24.4536C22.2252 24.0712 22.736 23.8446 23.276 23.8177H37.207C37.7473 23.8444 38.2583 24.0709 38.6408 24.4532C39.0234 24.8356 39.2501 25.3465 39.277 25.8867V35.9447C39.2511 36.4857 39.0248 36.9976 38.6421 37.3808C38.2595 37.764 37.7479 37.991 37.207 38.0177ZM26.924 31.1767C26.9006 31.1766 26.8774 31.1816 26.8562 31.1915C26.8349 31.2013 26.8161 31.2158 26.801 31.2337L23.367 35.3067C23.3425 35.3363 23.3287 35.3733 23.328 35.4117C23.328 35.4544 23.345 35.4954 23.3752 35.5256C23.4054 35.5558 23.4463 35.5727 23.489 35.5727H36.989C37.0276 35.5727 37.0648 35.5589 37.094 35.5337C37.1262 35.5063 37.1467 35.4676 37.1511 35.4255C37.1556 35.3835 37.1438 35.3413 37.118 35.3077L32.488 29.8307C32.4843 29.8259 32.4799 29.8215 32.475 29.8177L32.468 29.8117C32.4399 29.7883 32.4047 29.7749 32.368 29.7737C32.3446 29.7736 32.3214 29.7786 32.3002 29.7885C32.2789 29.7983 32.2601 29.8128 32.245 29.8307L29.053 33.6177L27.053 31.2377L27.036 31.2177H27.028C26.9992 31.1923 26.9624 31.1778 26.924 31.1767ZM26.732 26.7177C26.4768 26.7177 26.2273 26.7934 26.0151 26.9351C25.8029 27.0768 25.6374 27.2783 25.5396 27.514C25.4418 27.7497 25.4161 28.0092 25.4656 28.2595C25.5152 28.5099 25.6379 28.7399 25.8181 28.9206C25.9984 29.1012 26.2281 29.2244 26.4783 29.2746C26.7286 29.3247 26.988 29.2996 27.224 29.2023C27.46 29.1051 27.6618 28.9401 27.804 28.7282C27.9462 28.5163 28.0224 28.267 28.023 28.0117C28.0233 27.842 27.9901 27.6739 27.9254 27.5169C27.8606 27.36 27.7656 27.2174 27.6457 27.0972C27.5258 26.9771 27.3834 26.8817 27.2266 26.8166C27.0698 26.7515 26.9018 26.7179 26.732 26.7177Z" fill="url(#paint0_linear_136_2540)"/>
<defs>
<linearGradient id="paint0_linear_136_2540" x1="36.5304" y1="23.8177" x2="26.6844" y2="40.3255" gradientUnits="userSpaceOnUse">
<stop stop-color="#CC566C"/>
<stop offset="1" stop-color="#E5644F"/>
</linearGradient>
</defs>
</svg>
