<svg width="61" height="61" viewBox="0 0 61 61" fill="none" xmlns="http://www.w3.org/2000/svg">
<path d="M30.4445 1.5H31.5555C47.5324 1.5 60.5 14.6988 60.5 31C60.5 47.3013 47.5324 60.5 31.5555 60.5H30.4445C14.4676 60.5 1.5 47.3013 1.5 31C1.5 14.6988 14.4676 1.5 30.4445 1.5Z" fill="white" stroke="#F5F5F6"/>
<path d="M41.9061 16.751H19.4271C18.5755 16.751 17.7587 17.0893 17.1565 17.6915C16.5544 18.2936 16.2161 19.1104 16.2161 19.962V42.441C16.2163 43.2924 16.5547 44.1089 17.1569 44.7108C17.759 45.3128 18.5756 45.651 19.4271 45.651H41.9061C42.7573 45.6507 43.5737 45.3124 44.1756 44.7105C44.7775 44.1086 45.1158 43.2922 45.1161 42.441V19.962C45.1161 19.1105 44.7779 18.294 44.1759 17.6918C43.574 17.0897 42.7575 16.7512 41.9061 16.751ZM43.5161 42.441C43.5166 42.6526 43.4753 42.8621 43.3946 43.0577C43.3139 43.2533 43.1953 43.431 43.0457 43.5806C42.8961 43.7302 42.7184 43.8488 42.5228 43.9295C42.3272 44.0102 42.1176 44.0515 41.9061 44.051H19.4271C19.2159 44.0508 19.0069 44.0091 18.8119 43.9281C18.6169 43.847 18.4398 43.7284 18.2907 43.5788C18.1416 43.4293 18.0235 43.2518 17.9431 43.0566C17.8627 42.8613 17.8215 42.6521 17.8221 42.441V24.779H43.5161V42.441ZM17.8221 23.173V19.962C17.8223 19.5364 17.9915 19.1283 18.2925 18.8274C18.5934 18.5264 19.0015 18.3572 19.4271 18.357H41.9061C42.1172 18.3565 42.3264 18.3976 42.5217 18.478C42.7169 18.5584 42.8944 18.6765 43.0439 18.8256C43.1935 18.9747 43.3121 19.1518 43.3931 19.3468C43.4742 19.5418 43.5159 19.7508 43.5161 19.962V23.173H17.8221Z" fill="#F5222D"/>
<path d="M19.499 21C19.7752 21 19.999 20.7761 19.999 20.5C19.999 20.2239 19.7752 20 19.499 20C19.2229 20 18.999 20.2239 18.999 20.5C18.999 20.7761 19.2229 21 19.499 21Z" fill="#F5222D"/>
<path d="M21.499 21C21.7752 21 21.999 20.7761 21.999 20.5C21.999 20.2239 21.7752 20 21.499 20C21.2229 20 20.999 20.2239 20.999 20.5C20.999 20.7761 21.2229 21 21.499 21Z" fill="#F5222D"/>
<path d="M23.499 21C23.7752 21 23.999 20.7761 23.999 20.5C23.999 20.2239 23.7752 20 23.499 20C23.2229 20 22.999 20.2239 22.999 20.5C22.999 20.7761 23.2229 21 23.499 21Z" fill="#F5222D"/>
<path d="M33.072 29.596H41.1C41.313 29.596 41.5173 29.5114 41.6679 29.3608C41.8184 29.2102 41.903 29.006 41.903 28.793C41.903 28.58 41.8184 28.3758 41.6679 28.2252C41.5173 28.0746 41.313 27.99 41.1 27.99H33.072C32.8591 27.99 32.6548 28.0746 32.5042 28.2252C32.3536 28.3758 32.269 28.58 32.269 28.793C32.269 29.006 32.3536 29.2102 32.5042 29.3608C32.6548 29.5114 32.8591 29.596 33.072 29.596Z" fill="#F5222D"/>
<path d="M33.072 32.808H41.1C41.313 32.808 41.5173 32.7234 41.6679 32.5728C41.8184 32.4222 41.903 32.218 41.903 32.005C41.903 31.7921 41.8184 31.5878 41.6679 31.4372C41.5173 31.2866 41.313 31.202 41.1 31.202H33.072C32.8591 31.202 32.6548 31.2866 32.5042 31.4372C32.3536 31.5878 32.269 31.7921 32.269 32.005C32.269 32.218 32.3536 32.4222 32.5042 32.5728C32.6548 32.7234 32.8591 32.808 33.072 32.808Z" fill="#F5222D"/>
<path d="M33.072 36.019H41.1C41.313 36.019 41.5173 35.9344 41.6679 35.7838C41.8184 35.6332 41.903 35.4289 41.903 35.216C41.903 35.003 41.8184 34.7987 41.6679 34.6482C41.5173 34.4976 41.313 34.413 41.1 34.413H33.072C32.8591 34.413 32.6548 34.4976 32.5042 34.6482C32.3536 34.7987 32.269 35.003 32.269 35.216C32.269 35.4289 32.3536 35.6332 32.5042 35.7838C32.6548 35.9344 32.8591 36.019 33.072 36.019Z" fill="#F5222D"/>
<path d="M20.2271 39.23H41.1031C41.316 39.23 41.5203 39.1454 41.6709 38.9948C41.8215 38.8442 41.9061 38.64 41.9061 38.427C41.9061 38.2141 41.8215 38.0098 41.6709 37.8592C41.5203 37.7086 41.316 37.624 41.1031 37.624H20.2271C20.0141 37.624 19.8099 37.7086 19.6593 37.8592C19.5087 38.0098 19.4241 38.2141 19.4241 38.427C19.4241 38.64 19.5087 38.8442 19.6593 38.9948C19.8099 39.1454 20.0141 39.23 20.2271 39.23Z" fill="#F5222D"/>
<path d="M20.2271 42.441H41.1031C41.316 42.441 41.5203 42.3564 41.6709 42.2058C41.8215 42.0552 41.9061 41.8509 41.9061 41.638C41.9061 41.425 41.8215 41.2207 41.6709 41.0702C41.5203 40.9196 41.316 40.835 41.1031 40.835H20.2271C20.0141 40.835 19.8099 40.9196 19.6593 41.0702C19.5087 41.2207 19.4241 41.425 19.4241 41.638C19.4241 41.8509 19.5087 42.0552 19.6593 42.2058C19.8099 42.3564 20.0141 42.441 20.2271 42.441Z" fill="#F5222D"/>
<path d="M21.0331 36.019H29.0611C29.4871 36.019 29.8956 35.8498 30.1967 35.5486C30.4979 35.2474 30.6671 34.8389 30.6671 34.413V27.991C30.6671 27.5651 30.4979 27.1566 30.1967 26.8554C29.8956 26.5542 29.4871 26.385 29.0611 26.385H21.0331C20.6072 26.385 20.1987 26.5542 19.8975 26.8554C19.5963 27.1566 19.4271 27.5651 19.4271 27.991V34.413C19.4271 34.8389 19.5963 35.2474 19.8975 35.5486C20.1987 35.8498 20.6072 36.019 21.0331 36.019ZM21.0331 28.794C21.0331 28.5818 21.1174 28.3784 21.2674 28.2283C21.4175 28.0783 21.621 27.994 21.8331 27.994H28.2551C28.4673 27.994 28.6708 28.0783 28.8208 28.2283C28.9708 28.3784 29.0551 28.5818 29.0551 28.794V33.611C29.0551 33.8232 28.9708 34.0267 28.8208 34.1767C28.6708 34.3267 28.4673 34.411 28.2551 34.411H21.8351C21.623 34.411 21.4195 34.3267 21.2694 34.1767C21.1194 34.0267 21.0351 33.8232 21.0351 33.611L21.0331 28.794Z" fill="#F5222D"/>
</svg>
